HIERARCHY
ROOT joint_Root
{
	OFFSET 0.0 0.0 0.0
	CHANNELS 6 Xposition Yposition Zposition Zrotation Xrotation Yrotation 
	JOINT Hips
	{
		OFFSET -17.1583 93.1646 452.98
		CHANNELS 6 Xposition Yposition Zposition Zrotation Xrotation Yrotation 
		JOINT Spine
		{
			OFFSET 15.7357 0.0 0.0
			CHANNELS 6 Xposition Yposition Zposition Zrotation Xrotation Yrotation 
			JOINT Chest
			{
				OFFSET 8.98455 -0.406207 0.0
				CHANNELS 6 Xposition Yposition Zposition Zrotation Xrotation Yrotation 
				JOINT Neck
				{
					OFFSET 16.3773 0.0 0.0
					CHANNELS 6 Xposition Yposition Zposition Zrotation Xrotation Yrotation 
					JOINT Head
					{
						OFFSET 6.45672 0.0 0.0
						CHANNELS 6 Xposition Yposition Zposition Zrotation Xrotation Yrotation 
						End Site
						{
							OFFSET 0.0 0.0 0.0
						}
					}
				}
				JOINT Shoulder_L
				{
					OFFSET 12.9942 -0.242716 4.98039
					CHANNELS 6 Xposition Yposition Zposition Zrotation Xrotation Yrotation 
					JOINT UpperArm_L
					{
						OFFSET 5.34809 0.0 0.0
						CHANNELS 6 Xposition Yposition Zposition Zrotation Xrotation Yrotation 
						JOINT LowerArm_L
						{
							OFFSET 24.3286 1.87007e-05 0.0
							CHANNELS 6 Xposition Yposition Zposition Zrotation Xrotation Yrotation 
							JOINT Hand_L
							{
								OFFSET 22.2916 0.0 0.0
								CHANNELS 6 Xposition Yposition Zposition Zrotation Xrotation Yrotation 
								End Site
								{
									OFFSET 0.0 0.0 0.0
								}
							}
						}
					}
				}
				JOINT Shoulder_R
				{
					OFFSET 12.9945 -0.242716 -4.98039
					CHANNELS 6 Xposition Yposition Zposition Zrotation Xrotation Yrotation 
					JOINT UpperArm_R
					{
						OFFSET -5.34813 0.0 0.0
						CHANNELS 6 Xposition Yposition Zposition Zrotation Xrotation Yrotation 
						JOINT LowerArm_R
						{
							OFFSET -24.3289 0.000322201 0.0
							CHANNELS 6 Xposition Yposition Zposition Zrotation Xrotation Yrotation 
							JOINT Hand_R
							{
								OFFSET -22.2915 -0.000108084 0.0
								CHANNELS 6 Xposition Yposition Zposition Zrotation Xrotation Yrotation 
								End Site
								{
									OFFSET 0.0 0.0 0.0
								}
							}
						}
					}
				}
			}
		}
		JOINT UpperLeg_L
		{
			OFFSET -2.19248 -6.46944 0.0
			CHANNELS 6 Xposition Yposition Zposition Zrotation Xrotation Yrotation 
			JOINT LowerLeg_L
			{
				OFFSET 39.0811 0.0 -1.23785e-05
				CHANNELS 6 Xposition Yposition Zposition Zrotation Xrotation Yrotation 
				JOINT Foot_L
				{
					OFFSET 40.9854 0.0 -1.26872e-05
					CHANNELS 6 Xposition Yposition Zposition Zrotation Xrotation Yrotation 
					JOINT Toes_L
					{
						OFFSET 11.7543 0.0 0.0
						CHANNELS 6 Xposition Yposition Zposition Zrotation Xrotation Yrotation 
						End Site
						{
							OFFSET 0.0 0.0 0.0
						}
					}
				}
			}
		}
		JOINT UpperLeg_R
		{
			OFFSET -2.19251 6.46944 0.0
			CHANNELS 6 Xposition Yposition Zposition Zrotation Xrotation Yrotation 
			JOINT LowerLeg_R
			{
				OFFSET -39.0811 -0.00228153 -0.0401928
				CHANNELS 6 Xposition Yposition Zposition Zrotation Xrotation Yrotation 
				JOINT Foot_R
				{
					OFFSET -40.9854 0.0 0.0
					CHANNELS 6 Xposition Yposition Zposition Zrotation Xrotation Yrotation 
					JOINT Toes_R
					{
						OFFSET -11.7543 0.0 0.0
						CHANNELS 6 Xposition Yposition Zposition Zrotation Xrotation Yrotation 
						End Site
						{
							OFFSET 0.0 0.0 0.0
						}
					}
				}
			}
		}
	}
}
MOTION
Frames:	4
Frame Time:	0.0333333
0.000000 0.000000 0.000000 0.000000 0.000000 -0.000000 -2.346940 93.015700 -2.587380 87.761300 2.015090 6.126510 15.735700 0.000005 -0.000001 85.582100 84.042400 -84.134900 8.984550 -0.406207 -0.000000 4.127980 -0.962332 2.926020 16.377300 -0.000001 -0.000001 0.766182 0.754073 -0.037973 6.456720 -0.000001 -0.000000 -16.733300 -0.022988 0.616857 12.994200 -0.242716 4.980390 -92.561000 8.383490 -72.945200 5.348090 -0.000007 -0.000001 -65.483700 32.386700 -15.497200 24.328600 0.000019 0.000005 8.656780 38.577600 -13.723900 22.291600 -0.000001 0.000005 -22.274000 5.400130 -3.118070 12.994500 -0.242716 -4.980390 88.570100 4.490870 -72.317700 -5.348130 -0.000001 -0.000004 -59.285600 43.520800 -17.046800 -24.328900 0.000322 -0.000009 0.708105 1.780540 -21.696600 -22.291500 -0.000108 -0.000004 -19.157900 5.065000 5.928200 -2.192480 -6.469440 -0.000000 -171.281000 -10.909600 0.632417 39.081100 -0.000007 -0.000012 0.006511 -0.019388 18.563200 40.985400 -0.000006 -0.000013 -0.958463 16.535600 -67.772500 11.754300 -0.000000 0.000003 -0.000898 0.181571 -9.211470 -2.192510 6.469440 -0.000001 177.165000 9.384740 -176.787000 -39.081100 -0.002282 -0.040193 0.027690 -0.088541 15.383400 -40.985400 0.000008 0.000006 -4.554960 9.355490 -67.856900 -11.754300 -0.000006 -0.000006 -0.010636 0.276000 -5.358900
0.000000 0.000000 0.000000 0.000000 0.000000 -0.000000 -2.356140 93.021200 -2.212270 87.855300 2.240800 5.502850 15.735700 0.000005 -0.000001 85.435000 84.642400 -84.069800 8.984550 -0.406207 -0.000000 2.927760 -0.909585 2.750920 16.377300 -0.000001 -0.000001 0.545531 0.653656 0.081718 6.456720 -0.000001 -0.000000 -17.220300 -0.098817 0.610207 12.994200 -0.242716 4.980390 -92.297400 7.322710 -72.527100 5.348090 -0.000007 -0.000001 -61.839700 28.996700 -20.607200 24.328600 0.000019 0.000005 8.236740 44.178100 -11.734800 22.291600 -0.000001 0.000005 -31.513900 5.492250 -6.204220 12.994500 -0.242716 -4.980390 88.857900 3.429380 -71.566800 -5.348130 -0.000001 -0.000004 -54.424200 42.515200 -20.789800 -24.328900 0.000322 -0.000009 1.754710 3.473790 -26.837800 -22.291500 -0.000108 -0.000004 -28.125900 5.034470 6.587780 -2.192480 -6.469440 -0.000000 -171.398000 -11.152900 0.386270 39.081100 -0.000007 -0.000012 0.004890 -0.014832 18.248100 40.985400 -0.000006 -0.000013 -0.949707 16.869700 -67.893300 11.754300 -0.000000 0.000003 -0.001167 0.185382 -9.056620 -2.192510 6.469440 -0.000001 176.952000 10.421100 -176.980000 -39.081100 -0.002282 -0.040193 0.027695 -0.090001 15.148100 -40.985400 0.000008 0.000006 -4.554100 10.171700 -67.965000 -11.754300 -0.000006 -0.000006 -0.010895 0.277874 -5.282220
0.000000 0.000000 0.000000 0.000000 0.000000 -0.000000 -2.381770 93.091600 -1.855840 87.837900 2.446970 4.457650 15.735700 0.000005 -0.000001 84.418700 85.510500 -83.090400 8.984550 -0.406207 -0.000000 1.182880 -0.949165 2.664240 16.377300 -0.000001 -0.000001 0.158202 0.628768 -0.061830 6.456720 -0.000001 -0.000000 -17.240100 -0.106711 0.492851 12.994200 -0.242716 4.980390 -91.954900 5.990280 -71.888200 5.348090 -0.000007 -0.000001 -58.457700 20.626700 -25.749400 24.328600 0.000019 0.000005 6.155240 44.656200 -8.723060 22.291600 -0.000001 0.000005 -35.285400 5.425290 -3.796590 12.994500 -0.242716 -4.980390 89.184600 2.315940 -70.595700 -5.348130 -0.000001 -0.000004 -48.236200 38.726300 -25.110500 -24.328900 0.000322 -0.000009 1.061280 1.643960 -32.944400 -22.291500 -0.000108 -0.000004 -32.704500 4.990210 7.527380 -2.192480 -6.469440 -0.000000 -171.397000 -11.972300 -0.037695 39.081100 -0.000007 -0.000012 -0.001785 0.005677 17.449300 40.985400 -0.000006 -0.000013 -0.960696 17.674300 -67.782700 11.754300 -0.000000 0.000003 -0.001550 0.190560 -8.846110 -2.192510 6.469440 -0.000001 176.884000 11.603800 -177.292000 -39.081100 -0.002282 -0.040193 0.017098 -0.054628 14.144500 -40.985400 0.000008 0.000006 -5.177310 11.126600 -67.218300 -11.754300 -0.000006 -0.000006 -0.011149 0.279699 -5.207540
0.000000 0.000000 0.000000 0.000000 0.000000 -0.000000 -2.398470 93.220200 -1.541150 87.774500 2.599770 3.013760 15.735700 0.000005 -0.000001 82.427300 86.464000 -81.097000 8.984550 -0.406207 -0.000000 -0.742421 -1.030510 2.652710 16.377300 -0.000001 -0.000001 -0.876596 0.657727 -0.226210 6.456720 -0.000001 -0.000000 -16.834400 0.134643 0.064383 12.994200 -0.242716 4.980390 -91.616500 4.853180 -71.553100 5.348090 -0.000007 -0.000001 -54.214800 10.641800 -31.011500 24.328600 0.000019 0.000005 5.021700 42.651500 -7.389620 22.291600 -0.000001 0.000005 -30.694900 5.381900 -2.349290 12.994500 -0.242716 -4.980390 89.524100 1.303010 -69.933300 -5.348130 -0.000001 -0.000004 -42.557800 31.099400 -28.856700 -24.328900 0.000322 -0.000009 -1.004900 -1.259110 -38.508600 -22.291500 -0.000108 -0.000004 -30.007300 4.999690 7.347770 -2.192480 -6.469440 -0.000000 -171.445000 -13.159000 -0.665621 39.081100 -0.000007 -0.000012 -0.013210 0.045607 16.153400 40.985400 -0.000006 -0.000013 -1.045760 18.621700 -67.371700 11.754300 -0.000000 0.000003 -0.002102 0.197617 -8.559170 -2.192510 6.469440 -0.000001 176.963000 12.848200 -177.626000 -39.081100 -0.002282 -0.040193 0.005244 -0.008770 12.279900 -40.985400 0.000008 0.000006 -6.079670 12.089400 -65.846000 -11.754300 -0.000006 -0.000006 -0.011532 0.282418 -5.096220
